<?xml version="1.0" encoding="utf-8"?>
<!-- Generator: Adobe Illustrator 22.1.0, SVG Export Plug-In . SVG Version: 6.00 Build 0)  -->
<svg version="1.1" id="Layer_1" xmlns="http://www.w3.org/2000/svg" xmlns:xlink="http://www.w3.org/1999/xlink" x="0px" y="0px"
	 viewBox="0 0 580 217.5" style="enable-background:new 0 0 580 217.5;" xml:space="preserve">
<style type="text/css">
	.st0{fill:#A4D65E;}
	.st1{fill:#001A70;}
	.st2{fill:none;}
</style>
<g>
	<g>
		<g>
			<path class="st0" d="M272.8,56.3c-0.3-3.7-1.2-7.2-2.6-10.4c-1.5-3.4-3.6-6.4-6.1-8.9c-5.5-5.3-13-8.2-21.7-8.2
				c-4.2,0-8.1,0.7-11.6,2.2c-3.2,1.3-6.1,3.3-8.5,5.8c-2.3,2.3-4.2,5.2-5.6,8.5c-1.1,2.5-2,5.2-2.6,8.1c-0.1,0.4-0.2,0.9-0.2,1.3
				H105.2L84.4,43.9H43.9v14.7h13.2l50.5,58.2c9,10,20.7,17.2,34.5,20.3c-3.6,7.2-9.1,14.9-17.6,21.5h-20.7v14.7l108.2,0v-14.7
				h-20.7c-8.5-6.6-14-14.3-17.6-21.5c16.8-3.8,30.5-13.6,39.9-27.2c0,0,4.4-5.4,8-14.9c0.2-0.6,0.5-1.2,0.7-1.8v25H237v-13.3
				c4.7-1.4,9-3.4,13-5.8c5.3-3.3,9.8-7.4,13.5-12.2C270.4,77.7,273.7,66.6,272.8,56.3z M257,67.7c-1.1,3.7-2.9,7.1-5.3,10.3
				c-3.8,5.1-11,11.6-23.5,14l-5.9,1.1c2.6-7,4.3-14.6,4.9-22.5c0,0,0,0,0-0.1h0c0.1-1.5,0.2-3,0.2-4.4c0.2-3.3,0.2-6.7,0.9-9.9
				c0-0.1,0-0.1,0-0.2c1-4.8,2.9-7.5,4.3-8.9c2.3-2.3,5.4-3.4,9.5-3.4c4.9,0,8.7,1.3,11.4,4c2.5,2.4,4,5.9,4.4,10.1
				C258.4,60.8,258.1,64.3,257,67.7z"/>
		</g>
		<g>
			<g>
				<path class="st1" d="M293.3,70v2.7c0,2.7,3.5,4.3,7.3,4.3c4.2,0,7.2-2,7.2-5.6c0-4.2-4.3-5.6-8.8-7.4c-4.8-1.8-9.7-3.9-9.7-10.3
					c0-6.9,5.5-9.8,11.7-9.8c5.5,0,11,2.1,11,6v4.3h-4.8v-2.5c0-2.1-3.3-3.3-6.2-3.3c-3.6,0-6.4,1.7-6.4,5c0,3.9,3.7,5.2,7.7,6.7
					c5.4,2,10.7,4.1,10.7,10.8c0,7-5.7,10.6-12.4,10.6c-5.7,0-12-2.5-12-7.7V70H293.3z"/>
				<path class="st1" d="M331.8,54.2c7.8,0,14.1,5.7,14.1,13.6c0,7.9-6.3,13.7-14.1,13.7c-7.8,0-14.1-5.8-14.1-13.7
					C317.7,60,324,54.2,331.8,54.2z M331.8,77.3c4.9,0,9-3.9,9-9.4c0-5.4-4.1-9.3-9-9.3c-5,0-9,3.9-9,9.3
					C322.8,73.3,326.8,77.3,331.8,77.3z"/>
				<path class="st1" d="M353.3,58.7H349v-3.9h9.4v15.7c0,3.6,0.7,6.5,4.9,6.5c5.2,0,8.5-5,8.5-10.2v-8.2h-4.4v-3.9h9.4V76
					c0,0.7,0.4,1.1,1.1,1.1h2.7V81h-5.4c-2.3,0-3.3-1-3.3-2.9V77c0-0.9,0.1-1.5,0.1-1.5h-0.1c-0.5,1.4-3.5,6.2-10,6.2
					c-5.6,0-8.6-3.1-8.6-10V58.7z"/>
				<path class="st1" d="M387.3,58.7h-4.4v-3.9h4.5v-7.2h4.9v7.2h6.2v3.9h-6.2V71c0,5.3,3.6,6,5.6,6c0.7,0,1.2-0.1,1.2-0.1v4.2
					c0,0-0.7,0.1-1.8,0.1c-3.3,0-10-1-10-9.8V58.7z"/>
				<path class="st1" d="M402.2,77.1h4.1V48.4h-4.4v-3.9h9.3v13.5c0,1.2-0.2,2.2-0.2,2.2h0.1c1.1-2.5,4.5-6,9.8-6c6.1,0,9,3.4,9,10
					v12.9h4.1V81H425V65.4c0-3.7-0.8-6.6-5-6.6c-5.1,0-8.7,4.3-8.7,9.9v8.4h4.1V81h-13.2V77.1z"/>
				<path class="st1" d="M450.5,54.2c7.4,0,11.3,5.5,11.3,12.2c0,0.7-0.2,1.9-0.2,1.9h-19.1c0.3,5.8,4.4,8.9,9,8.9
					c4.5,0,7.8-2.9,7.8-2.9l2.1,3.7c0,0-3.9,3.6-10.2,3.6c-8.2,0-13.8-5.9-13.8-13.7C437.5,59.6,443.1,54.2,450.5,54.2z M456.7,65.2
					c-0.2-4.6-2.9-7-6.2-7c-3.8,0-6.9,2.6-7.6,7H456.7z"/>
				<path class="st1" d="M466.6,77.1h3.9V59.9c0-0.8-0.4-1.1-1.1-1.1h-3.3v-3.9h5.9c2.3,0,3.4,0.9,3.4,3v1.7c0,1-0.1,1.8-0.1,1.8
					h0.1c1.2-3.8,4.2-6.8,8.3-6.8c0.7,0,1.3,0.1,1.3,0.1v5c0,0-0.6-0.2-1.4-0.2c-5.6,0-7.9,5.6-7.9,10.7v6.9h3.9V81h-12.8V77.1z"/>
				<path class="st1" d="M488.3,77.1h4.1V59.9c0-0.8-0.4-1.1-1.1-1.1H488v-3.9h5.9c2.3,0,3.3,1,3.3,2.9v1.3c0,0.8-0.2,1.5-0.2,1.5
					h0.1c0.5-1.4,3.6-6.3,10.2-6.3c6,0,8.7,3.4,8.7,10v12.9h4.1V81H511V65.4c0-3.7-0.7-6.6-4.9-6.6c-5.3,0-8.7,4.8-8.7,10v8.3h4.1
					V81h-13.2V77.1z"/>
				<path class="st1" d="M288.5,123.1h4.5V94.6h-4.5v-4h25.2v8.6h-4.5v-4.2h-11v12.1h12.6v4.2h-12.6v11.7h5v4h-14.7V123.1z"/>
				<path class="st1" d="M330.7,100.4c7.8,0,14.1,5.7,14.1,13.6c0,7.9-6.3,13.7-14.1,13.7c-7.8,0-14.1-5.8-14.1-13.7
					C316.6,106.1,322.9,100.4,330.7,100.4z M330.7,123.4c4.9,0,9-3.9,9-9.4c0-5.4-4.1-9.3-9-9.3c-5,0-9,3.9-9,9.3
					C321.8,119.5,325.8,123.4,330.7,123.4z"/>
				<path class="st1" d="M363,100.4c7.8,0,14.1,5.7,14.1,13.6c0,7.9-6.3,13.7-14.1,13.7c-7.8,0-14.1-5.8-14.1-13.7
					C349,106.1,355.2,100.4,363,100.4z M363,123.4c4.9,0,9-3.9,9-9.4c0-5.4-4.1-9.3-9-9.3c-5,0-9,3.9-9,9.3
					C354.1,119.5,358.1,123.4,363,123.4z"/>
				<path class="st1" d="M393.2,100.4c5.9,0,8.1,4.4,8.1,4.4h0.1c0,0-0.2-0.8-0.2-2v-8.3h-4.3v-3.9h9.3v31.4c0,0.8,0.4,1.1,1.1,1.1
					h2.6v3.9h-5.2c-2.3,0-3.3-1.1-3.3-2.8v-0.4c0-0.9,0.2-1.4,0.2-1.4h-0.1c0,0-2.1,5.2-8.8,5.2c-7,0-11.4-5.6-11.4-13.7
					C381.4,105.7,386.2,100.4,393.2,100.4z M393.8,123.4c3.9,0,7.5-2.8,7.5-9.3c0-4.8-2.4-9.3-7.4-9.3c-4.2,0-7.5,3.4-7.5,9.3
					C386.5,119.7,389.5,123.4,393.8,123.4z"/>
				<path class="st1" d="M411.9,101h11.7v3.9h-3.5l4.4,15.2c0.3,1.1,0.4,2.4,0.4,2.4h0.2c0,0,0.1-1.3,0.4-2.4l5.7-19h4.5l5.7,19
					c0.3,1.1,0.4,2.4,0.4,2.4h0.2c0,0,0.1-1.3,0.4-2.4l4.5-15.2h-3.6V101h11.7v3.9h-3.3l-6.7,22.2h-5.6l-5.5-17.4
					c-0.3-1.2-0.5-2.5-0.5-2.5h-0.1c0,0-0.2,1.3-0.5,2.5l-5.5,17.4h-5.6l-6.7-22.2h-3.3V101z"/>
				<path class="st1" d="M472.5,111.1h1.7v-1c0-4.1-2.4-5.6-5.6-5.6c-4.1,0-7.5,2.5-7.5,2.5l-2-3.6c0,0,3.8-3.1,9.9-3.1
					c6.7,0,10.2,3.5,10.2,10.1v11.7c0,0.8,0.4,1.1,1.1,1.1h2.6v3.9h-5.2c-2.3,0-3.3-1.1-3.3-2.8v-0.4c0-1,0.2-1.7,0.2-1.7h-0.1
					c0,0-2.3,5.5-8.6,5.5c-4.3,0-8.7-2.5-8.7-7.9C457.3,111.6,468.2,111.1,472.5,111.1z M467,123.8c4.4,0,7.2-4.5,7.2-8.5v-1.1h-1.3
					c-2.4,0-10.6,0.1-10.6,5.1C462.3,121.7,464,123.8,467,123.8z"/>
				<path class="st1" d="M490.5,133.8c2.2,0,3.9-1.5,4.8-3.6l1.1-2.6l-9.1-22.7H484V101h11.9v3.9h-3.5l5.8,15.5
					c0.4,1.1,0.5,2.3,0.5,2.3h0.2c0,0,0.2-1.1,0.6-2.3l5.8-15.5h-3.4V101h11.6v3.9h-3.3l-10.3,26.4c-1.8,4.4-5.2,6.7-9.2,6.7
					c-3.4,0-5.6-1.7-5.6-1.7l1.7-3.8C486.8,132.5,488.3,133.8,490.5,133.8z"/>
				<path class="st1" d="M516,118.7h4.4v1.7c0,2.2,3.1,3.3,6,3.3c2.9,0,5.3-1.2,5.3-3.4c0-2.6-2.9-3.5-6.5-4.7
					c-3.9-1.4-8.2-3.2-8.2-7.9c0-5.2,5.1-7.2,9.7-7.2c3.7,0,9,1.4,9,5.3v3.1h-4.4v-1.7c0-1.6-2.1-2.7-4.6-2.7c-2.5,0-4.6,1-4.6,3.1
					c0,2.5,2.9,3.5,6,4.6c4,1.3,8.6,3,8.6,7.9c0,5-4.5,7.7-10.5,7.7c-4.7,0-10.2-2.1-10.2-6.2V118.7z"/>
				<path class="st1" d="M286.4,169.2h3.5l11.6-32.4h5.8l11.6,32.4h3.5v4h-12.6v-4h3.9l-2.8-8.1h-12.9l-2.8,8.1h3.9v4h-12.6V169.2z
					 M309.5,157l-4.4-12.6c-0.5-1.5-0.6-2.8-0.6-2.8h-0.2c0,0-0.2,1.3-0.6,2.8l-4.5,12.6H309.5z"/>
				<path class="st1" d="M327,140.7h-4.3v-3.9h9.3v28.7c0,2.2,0.5,3.7,2.8,3.7c0.8,0,1.4-0.1,1.4-0.1l-0.1,4.1c0,0-1,0.1-2.2,0.1
					c-3.7,0-6.9-1.5-6.9-7.6V140.7z"/>
				<path class="st1" d="M341.7,140.7h-4.3v-3.9h9.3v28.7c0,2.2,0.5,3.7,2.8,3.7c0.8,0,1.4-0.1,1.4-0.1l-0.1,4.1c0,0-1,0.1-2.2,0.1
					c-3.7,0-6.9-1.5-6.9-7.6V140.7z"/>
				<path class="st1" d="M354.9,169.4h4.1V151h-4.3v-3.9h9.3v22.2h4.1v3.9h-13.2V169.4z M358.9,136.8h5.3v5.1h-5.3V136.8z"/>
				<path class="st1" d="M386.7,157.2h1.7v-1c0-4.1-2.4-5.6-5.6-5.6c-4.1,0-7.5,2.5-7.5,2.5l-2-3.6c0,0,3.8-3.1,9.9-3.1
					c6.7,0,10.2,3.5,10.2,10.1v11.7c0,0.8,0.4,1.1,1.1,1.1h2.6v3.9h-5.2c-2.3,0-3.3-1.1-3.3-2.8V170c0-1,0.2-1.7,0.2-1.7h-0.1
					c0,0-2.3,5.5-8.6,5.5c-4.3,0-8.7-2.5-8.7-7.9C371.5,157.7,382.4,157.2,386.7,157.2z M381.3,170c4.4,0,7.2-4.5,7.2-8.5v-1.1h-1.3
					c-2.4,0-10.6,0.1-10.6,5.1C376.6,167.9,378.3,170,381.3,170z"/>
				<path class="st1" d="M400.9,169.4h4.1v-17.2c0-0.8-0.4-1.1-1.1-1.1h-3.2v-3.9h5.9c2.3,0,3.3,1,3.3,2.9v1.3
					c0,0.8-0.2,1.5-0.2,1.5h0.1c0.5-1.4,3.6-6.3,10.2-6.3c6,0,8.7,3.4,8.7,10v12.9h4.1v3.9h-9.1v-15.6c0-3.7-0.7-6.6-4.9-6.6
					c-5.3,0-8.7,4.8-8.7,10v8.3h4.1v3.9h-13.2V169.4z"/>
				<path class="st1" d="M449.9,146.5c3.9,0,10.2,1.4,10.2,5.9v3.2h-4.4v-1.8c0-2-3.3-3-5.6-3c-5.3,0-8.9,3.7-8.9,9.3
					c0,5.9,4.2,9.4,9.2,9.4c4.4,0,7.4-2.6,8.4-3.4l1.9,3.7c-1.2,1.1-5,4-10.5,4c-7.5,0-14.1-5.2-14.1-13.6
					C436.1,152.2,442.1,146.5,449.9,146.5z"/>
				<path class="st1" d="M477.7,146.5c7.4,0,11.3,5.5,11.3,12.2c0,0.7-0.2,1.9-0.2,1.9h-19.1c0.3,5.8,4.4,8.9,9,8.9
					c4.5,0,7.8-2.9,7.8-2.9l2.1,3.7c0,0-3.9,3.6-10.2,3.6c-8.2,0-13.8-5.9-13.8-13.7C464.7,151.9,470.3,146.5,477.7,146.5z
					 M483.8,157.4c-0.2-4.6-2.9-7-6.2-7c-3.8,0-6.9,2.6-7.6,7H483.8z"/>
			</g>
		</g>
	</g>
	<rect class="st2" width="580" height="217.5"/>
</g>
</svg>
